:FULLY-SPECIFIED
:FORCE-ALL-JOINTS-BE-3DOF
:DEGREES
442
root 3.40565 15.9593 -8.50589 1.99406 -9.22096 -6.49453
lfemur -30.0175 3.13295 -6.78169
ltibia 53.5578 -0 0
lfoot -24.5913 2.50893 -0.377281
ltoes -4.18051 0 0
rfemur -40.234 5.4805 3.69535
rtibia 51.6889 -0 0
rfoot 6.92225 4.06104 -0.0566132
rtoes -15.4733 0 0
lowerback 6.95034 2.16037 2.4377
upperback 1.75372 3.02064 -0.509952
thorax -1.88231 1.49858 -2.09784
lowerneck -7.07873 2.00308 7.69489
upperneck 5.36248 2.07178 -2.0226
head 3.18577 1.0986 -2.02833
lclavicle -2.28912e-14 6.98332e-15 1.76032e-31
lhumerus -44.0662 -24.549 98.9695
lradius 49.7877 -0 0
lwrist 10.5203 0 0
lhand -16.6463 -1.08248 -0.0468558
lfingers 7.12502 -0 0
lthumb 9.55186 28.3672 -0.150484
rclavicle -2.28912e-14 6.98332e-15 1.76032e-31
rhumerus -46.4184 9.75256 -89.9193
rradius 73.0847 -0 0
rwrist 15.0238 0 0
rhand -24.2807 -19.9703 0.112132
rfingers 7.12502 -0 0
rthumb 2.18907 -49.6449 0.186742
443
root 3.42759 15.967 -8.43698 1.93859 -7.64578 -6.48771
lfemur -30.052 2.74799 -7.02925
ltibia 53.4509 -0 0
lfoot -24.678 2.2987 -0.387486
ltoes -3.87863 0 0
rfemur -40.5452 5.54463 3.7357
rtibia 52.0304 -0 0
rfoot 6.978 4.2121 -0.0578684
rtoes -15.5107 0 0
lowerback 6.95067 2.12559 2.38075
upperback 1.73144 2.97115 -0.483504
thorax -1.90855 1.47386 -2.03449
lowerneck -7.12709 1.82959 7.55084
upperneck 5.4411 1.84743 -1.96766
head 3.21174 0.98672 -2.0015
lclavicle -2.27362e-14 6.82235e-15 1.85322e-31
lhumerus -44.1109 -24.6986 99.2222
lradius 49.8814 -0 0
lwrist 10.3979 0 0
lhand -16.2709 -1.07734 -0.0431832
lfingers 7.12502 -0 0
lthumb 9.91225 28.3327 -0.153942
rclavicle -2.27362e-14 6.82235e-15 1.85322e-31
rhumerus -46.3228 10.2447 -90.0316
rradius 73.3883 -0 0
rwrist 15.2031 0 0
rhand -23.8199 -19.8489 0.120614
rfingers 7.12502 -0 0
rthumb 2.63307 -49.5014 0.198913
444
root 3.45096 15.9749 -8.36896 1.88389 -6.03177 -6.48081
lfemur -30.0799 2.35581 -7.28153
ltibia 53.341 -0 0
lfoot -24.7581 2.08851 -0.396577
ltoes -3.56622 0 0
rfemur -40.8627 5.60477 3.78105
rtibia 52.3792 -0 0
rfoot 7.03152 4.36395 -0.0589446
rtoes -15.5459 0 0
lowerback 6.94928 2.08936 2.32191
upperback 1.70867 2.91957 -0.45612
thorax -1.93444 1.44813 -1.96899
lowerneck -7.17615 1.65027 7.4019
upperneck 5.52025 1.61562 -1.91027
head 3.2379 0.871177 -1.97335
lclavicle -2.25781e-14 6.66017e-15 1.94356e-31
lhumerus -44.1581 -24.852 99.4827
lradius 49.9786 -0 0
lwrist 10.2745 0 0
lhand -15.8835 -1.06958 -0.0391056
lfingers 7.12502 -0 0
lthumb 10.2842 28.2996 -0.156915
rclavicle -2.25781e-14 6.66017e-15 1.94356e-31
rhumerus -46.223 10.7484 -90.1453
rradius 73.7004 -0 0
rwrist 15.3842 0 0
rhand -23.3542 -19.7285 0.129041
rfingers 7.12502 -0 0
rthumb 3.08177 -49.3582 0.210896
445
root 3.47571 15.983 -8.3018 1.82996 -4.38081 -6.4739
lfemur -30.1013 1.95681 -7.53835
ltibia 53.228 -0 0
lfoot -24.8319 1.87843 -0.404564
ltoes -3.24374 0 0
rfemur -41.1861 5.66106 3.83122
rtibia 52.735 -0 0
rfoot 7.08286 4.51648 -0.0598445
rtoes -15.5791 0 0
lowerback 6.94623 2.05172 2.26125
upperback 1.68544 2.86599 -0.427837
thorax -1.95997 1.42146 -1.90144
lowerneck -7.22579 1.46538 7.24829
upperneck 5.59987 1.37666 -1.85054
head 3.26423 0.752126 -1.94394
lclavicle -2.2417e-14 6.49689e-15 2.03107e-31
lhumerus -44.2077 -25.0089 99.7507
lradius 50.079 -0 0
lwrist 10.1504 0 0
lhand -15.4846 -1.0593 -0.0346676
lfingers 7.12502 -0 0
lthumb 10.6673 28.268 -0.159414
rclavicle -2.2417e-14 6.49689e-15 2.03107e-31
rhumerus -46.1193 11.2632 -90.2604
rradius 74.0205 -0 0
rwrist 15.5671 0 0
rhand -22.884 -19.6091 0.137379
rfingers 7.12502 -0 0
rthumb 3.53487 -49.2154 0.222643
446
root 3.50178 15.9914 -8.2355 1.77679 -2.69474 -6.46705
lfemur -30.1164 1.55141 -7.7995
ltibia 53.1123 -0 0
lfoot -24.8995 1.66853 -0.411456
ltoes -2.91166 0 0
rfemur -41.5152 5.7137 3.88603
rtibia 53.0974 -0 0
rfoot 7.13208 4.66964 -0.060571
rtoes -15.6102 0 0
lowerback 6.94158 2.01274 2.19887
upperback 1.66177 2.81049 -0.398693
thorax -1.98516 1.39389 -1.83195
lowerneck -7.27594 1.27515 7.09025
upperneck 5.67988 1.13088 -1.78861
head 3.29072 0.629731 -1.91332
lclavicle -2.22531e-14 6.33262e-15 2.11549e-31
lhumerus -44.2598 -25.1691 100.026
lradius 50.1825 -0 0
lwrist 10.0255 0 0
lhand -15.0747 -1.04657 -0.0299142
lfingers 7.12502 -0 0
lthumb 11.0609 28.2377 -0.161453
rclavicle -2.22531e-14 6.33262e-15 2.11549e-31
rhumerus -46.0119 11.7885 -90.3765
rradius 74.3483 -0 0
rwrist 15.7515 0 0
rhand -22.4096 -19.4907 0.145594
rfingers 7.12502 -0 0
rthumb 3.99205 -49.073 0.234112
